<svg id="visual" viewBox="0 0 900 600" width="900" height="600" xmlns="http://www.w3.org/2000/svg" xmlns:xlink="http://www.w3.org/1999/xlink" version="1.1"><rect x="0" y="0" width="900" height="600" fill="#000000"></rect><path d="M0 509L11.5 501.7C23 494.3 46 479.7 69 482.7C92 485.7 115 506.3 138.2 509.8C161.3 513.3 184.7 499.7 207.8 489.2C231 478.7 254 471.3 277 475.2C300 479 323 494 346 502.3C369 510.7 392 512.3 415.2 512.3C438.3 512.3 461.7 510.7 484.8 498.3C508 486 531 463 554 458C577 453 600 466 623 474.8C646 483.7 669 488.3 692.2 496.8C715.3 505.3 738.7 517.7 761.8 509.5C785 501.3 808 472.7 831 468.7C854 464.7 877 485.3 888.5 495.7L900 506L900 601L888.5 601C877 601 854 601 831 601C808 601 785 601 761.8 601C738.7 601 715.3 601 692.2 601C669 601 646 601 623 601C600 601 577 601 554 601C531 601 508 601 484.8 601C461.7 601 438.3 601 415.2 601C392 601 369 601 346 601C323 601 300 601 277 601C254 601 231 601 207.8 601C184.7 601 161.3 601 138.2 601C115 601 92 601 69 601C46 601 23 601 11.5 601L0 601Z" fill="#0066ff"></path><path d="M0 497L11.5 496C23 495 46 493 69 489.5C92 486 115 481 138.2 488.2C161.3 495.3 184.7 514.7 207.8 515C231 515.3 254 496.7 277 487.8C300 479 323 480 346 489.7C369 499.3 392 517.7 415.2 521.3C438.3 525 461.7 514 484.8 503.2C508 492.3 531 481.7 554 475.5C577 469.3 600 467.7 623 472.2C646 476.7 669 487.3 692.2 494.3C715.3 501.3 738.7 504.7 761.8 510.2C785 515.7 808 523.3 831 522.7C854 522 877 513 888.5 508.5L900 504L900 601L888.5 601C877 601 854 601 831 601C808 601 785 601 761.8 601C738.7 601 715.3 601 692.2 601C669 601 646 601 623 601C600 601 577 601 554 601C531 601 508 601 484.8 601C461.7 601 438.3 601 415.2 601C392 601 369 601 346 601C323 601 300 601 277 601C254 601 231 601 207.8 601C184.7 601 161.3 601 138.2 601C115 601 92 601 69 601C46 601 23 601 11.5 601L0 601Z" fill="#006fff"></path><path d="M0 473L11.5 478.8C23 484.7 46 496.3 69 501.2C92 506 115 504 138.2 509.7C161.3 515.3 184.7 528.7 207.8 534C231 539.3 254 536.7 277 533.8C300 531 323 528 346 530.2C369 532.3 392 539.7 415.2 542.2C438.3 544.7 461.7 542.3 484.8 533.2C508 524 531 508 554 503.5C577 499 600 506 623 506.2C646 506.3 669 499.7 692.2 493.8C715.3 488 738.7 483 761.8 490.5C785 498 808 518 831 522.2C854 526.3 877 514.7 888.5 508.8L900 503L900 601L888.5 601C877 601 854 601 831 601C808 601 785 601 761.8 601C738.7 601 715.3 601 692.2 601C669 601 646 601 623 601C600 601 577 601 554 601C531 601 508 601 484.8 601C461.7 601 438.3 601 415.2 601C392 601 369 601 346 601C323 601 300 601 277 601C254 601 231 601 207.8 601C184.7 601 161.3 601 138.2 601C115 601 92 601 69 601C46 601 23 601 11.5 601L0 601Z" fill="#0078ff"></path><path d="M0 491L11.5 500.7C23 510.3 46 529.7 69 534.8C92 540 115 531 138.2 531C161.3 531 184.7 540 207.8 542.5C231 545 254 541 277 541.7C300 542.3 323 547.7 346 543.5C369 539.3 392 525.7 415.2 523.8C438.3 522 461.7 532 484.8 527.2C508 522.3 531 502.7 554 499.7C577 496.7 600 510.3 623 518.3C646 526.3 669 528.7 692.2 529C715.3 529.3 738.7 527.7 761.8 531C785 534.3 808 542.7 831 541.5C854 540.3 877 529.7 888.5 524.3L900 519L900 601L888.5 601C877 601 854 601 831 601C808 601 785 601 761.8 601C738.7 601 715.3 601 692.2 601C669 601 646 601 623 601C600 601 577 601 554 601C531 601 508 601 484.8 601C461.7 601 438.3 601 415.2 601C392 601 369 601 346 601C323 601 300 601 277 601C254 601 231 601 207.8 601C184.7 601 161.3 601 138.2 601C115 601 92 601 69 601C46 601 23 601 11.5 601L0 601Z" fill="#0080ff"></path><path d="M0 539L11.5 539.3C23 539.7 46 540.3 69 536.2C92 532 115 523 138.2 522.8C161.3 522.7 184.7 531.3 207.8 529.3C231 527.3 254 514.7 277 508.2C300 501.7 323 501.3 346 502C369 502.7 392 504.3 415.2 512.5C438.3 520.7 461.7 535.3 484.8 544.2C508 553 531 556 554 553C577 550 600 541 623 532.2C646 523.3 669 514.7 692.2 509C715.3 503.3 738.7 500.7 761.8 500.7C785 500.7 808 503.3 831 506.5C854 509.7 877 513.3 888.5 515.2L900 517L900 601L888.5 601C877 601 854 601 831 601C808 601 785 601 761.8 601C738.7 601 715.3 601 692.2 601C669 601 646 601 623 601C600 601 577 601 554 601C531 601 508 601 484.8 601C461.7 601 438.3 601 415.2 601C392 601 369 601 346 601C323 601 300 601 277 601C254 601 231 601 207.8 601C184.7 601 161.3 601 138.2 601C115 601 92 601 69 601C46 601 23 601 11.5 601L0 601Z" fill="#0088ff"></path><path d="M0 562L11.5 555.3C23 548.7 46 535.3 69 528.7C92 522 115 522 138.2 525C161.3 528 184.7 534 207.8 534.8C231 535.7 254 531.3 277 532.3C300 533.3 323 539.7 346 540.5C369 541.3 392 536.7 415.2 537.8C438.3 539 461.7 546 484.8 550.5C508 555 531 557 554 557.5C577 558 600 557 623 557C646 557 669 558 692.2 559.8C715.3 561.7 738.7 564.3 761.8 565.7C785 567 808 567 831 558.5C854 550 877 533 888.5 524.5L900 516L900 601L888.5 601C877 601 854 601 831 601C808 601 785 601 761.8 601C738.7 601 715.3 601 692.2 601C669 601 646 601 623 601C600 601 577 601 554 601C531 601 508 601 484.8 601C461.7 601 438.3 601 415.2 601C392 601 369 601 346 601C323 601 300 601 277 601C254 601 231 601 207.8 601C184.7 601 161.3 601 138.2 601C115 601 92 601 69 601C46 601 23 601 11.5 601L0 601Z" fill="#0a90ff"></path><path d="M0 538L11.5 538.8C23 539.7 46 541.3 69 542.5C92 543.7 115 544.3 138.2 543C161.3 541.7 184.7 538.3 207.8 539.3C231 540.3 254 545.7 277 547.8C300 550 323 549 346 551.7C369 554.3 392 560.7 415.2 560C438.3 559.3 461.7 551.7 484.8 549.7C508 547.7 531 551.3 554 550.3C577 549.3 600 543.7 623 543.7C646 543.7 669 549.3 692.2 552.5C715.3 555.7 738.7 556.3 761.8 555.3C785 554.3 808 551.7 831 548.3C854 545 877 541 888.5 539L900 537L900 601L888.5 601C877 601 854 601 831 601C808 601 785 601 761.8 601C738.7 601 715.3 601 692.2 601C669 601 646 601 623 601C600 601 577 601 554 601C531 601 508 601 484.8 601C461.7 601 438.3 601 415.2 601C392 601 369 601 346 601C323 601 300 601 277 601C254 601 231 601 207.8 601C184.7 601 161.3 601 138.2 601C115 601 92 601 69 601C46 601 23 601 11.5 601L0 601Z" fill="#1e97fd"></path><path d="M0 568L11.5 568.2C23 568.3 46 568.7 69 564.7C92 560.7 115 552.3 138.2 553.2C161.3 554 184.7 564 207.8 566C231 568 254 562 277 561.7C300 561.3 323 566.7 346 565C369 563.3 392 554.7 415.2 555.5C438.3 556.3 461.7 566.7 484.8 569.2C508 571.7 531 566.3 554 562.7C577 559 600 557 623 557.8C646 558.7 669 562.3 692.2 560.7C715.3 559 738.7 552 761.8 551.5C785 551 808 557 831 559.5C854 562 877 561 888.5 560.5L900 560L900 601L888.5 601C877 601 854 601 831 601C808 601 785 601 761.8 601C738.7 601 715.3 601 692.2 601C669 601 646 601 623 601C600 601 577 601 554 601C531 601 508 601 484.8 601C461.7 601 438.3 601 415.2 601C392 601 369 601 346 601C323 601 300 601 277 601C254 601 231 601 207.8 601C184.7 601 161.3 601 138.2 601C115 601 92 601 69 601C46 601 23 601 11.5 601L0 601Z" fill="#2f9efc"></path><path d="M0 560L11.5 560.2C23 560.3 46 560.7 69 565.2C92 569.7 115 578.3 138.2 580.3C161.3 582.3 184.7 577.7 207.8 572.7C231 567.7 254 562.3 277 563C300 563.7 323 570.3 346 574C369 577.7 392 578.3 415.2 579.7C438.3 581 461.7 583 484.8 581.2C508 579.3 531 573.7 554 571.7C577 569.7 600 571.3 623 573.2C646 575 669 577 692.2 577.8C715.3 578.7 738.7 578.3 761.8 579.2C785 580 808 582 831 579.8C854 577.7 877 571.3 888.5 568.2L900 565L900 601L888.5 601C877 601 854 601 831 601C808 601 785 601 761.8 601C738.7 601 715.3 601 692.2 601C669 601 646 601 623 601C600 601 577 601 554 601C531 601 508 601 484.8 601C461.7 601 438.3 601 415.2 601C392 601 369 601 346 601C323 601 300 601 277 601C254 601 231 601 207.8 601C184.7 601 161.3 601 138.2 601C115 601 92 601 69 601C46 601 23 601 11.5 601L0 601Z" fill="#3fa5f9"></path><path d="M0 593L11.5 592.8C23 592.7 46 592.3 69 592C92 591.7 115 591.3 138.2 591.2C161.3 591 184.7 591 207.8 588C231 585 254 579 277 578.8C300 578.7 323 584.3 346 584.7C369 585 392 580 415.2 577.3C438.3 574.7 461.7 574.3 484.8 574.3C508 574.3 531 574.7 554 575.5C577 576.3 600 577.7 623 578.7C646 579.7 669 580.3 692.2 579.8C715.3 579.3 738.7 577.7 761.8 578.8C785 580 808 584 831 584.2C854 584.3 877 580.7 888.5 578.8L900 577L900 601L888.5 601C877 601 854 601 831 601C808 601 785 601 761.8 601C738.7 601 715.3 601 692.2 601C669 601 646 601 623 601C600 601 577 601 554 601C531 601 508 601 484.8 601C461.7 601 438.3 601 415.2 601C392 601 369 601 346 601C323 601 300 601 277 601C254 601 231 601 207.8 601C184.7 601 161.3 601 138.2 601C115 601 92 601 69 601C46 601 23 601 11.5 601L0 601Z" fill="#4facf7"></path></svg>